# Blender v2.79 (sub 0) OBJ File: ''
# www.blender.org
mtllib cornell_box_covered.mtl
o object4_Untitled.003
v 7.200195 -0.001772 5435.199219
v -24.800781 5487.998535 -156.799469
v -24.799805 5487.997559 5435.200195
v 39.199707 -0.000859 -156.800293
vt 0.000051 1.000000
vt 1.000000 0.000008
vt 1.000000 0.999992
vt 0.000000 0.000000
vn 1.0000 0.0087 0.0028
vn 1.0000 0.0088 0.0029
vn 1.0000 0.0058 -0.0000
vn 0.9999 0.0117 0.0057
usemtl Material_#74
s 1
f 1/1/1 2/2/2 3/3/3
f 1/1/1 4/4/4 2/2/2
o Cube_Cube.001
v -628.630615 -704.044556 5690.944336
v -628.630615 6214.946289 5690.945312
v -628.630615 6214.947266 -1228.045410
v -628.630615 -704.043457 -1228.046631
v 6290.359863 6214.947266 -1228.045410
v 6290.359863 -704.043457 -1228.046631
v 6290.359863 6214.946289 5690.945312
v 6290.359863 -704.044556 5690.944336
vt 0.000000 0.000000
vt 1.000000 0.000000
vt 1.000000 1.000000
vt 0.000000 1.000000
vt 0.000000 0.000000
vt 1.000000 0.000000
vt 1.000000 1.000000
vt 0.000000 1.000000
vt 0.000000 0.000000
vt 1.000000 0.000000
vt 1.000000 1.000000
vt 0.000000 1.000000
vt 1.000000 0.000000
vt 1.000000 1.000000
vt 0.000000 1.000000
vt 0.000000 0.000000
vt 1.000000 1.000000
vt 0.000000 1.000000
vn -1.0000 -0.0000 0.0000
vn 0.0000 0.0000 -1.0000
vn 1.0000 0.0000 0.0000
vn 0.0000 -1.0000 -0.0000
vn 0.0000 1.0000 0.0000
usemtl None
s off
f 5/5/5 6/6/5 7/7/5 8/8/5
f 8/9/6 7/10/6 9/11/6 10/12/6
f 10/13/7 9/14/7 11/15/7 12/16/7
f 8/9/8 10/17/8 12/18/8 5/19/8
f 9/20/9 7/10/9 6/21/9 11/22/9
o object5_Untitled
v 3115.722168 -0.003904 2614.900391
v 4765.722168 1649.996094 2614.900391
v 4765.722168 -0.003904 2614.900146
v 3115.722412 -0.004198 4264.900391
v 3115.722168 1649.996094 2614.900635
v 4765.722168 -0.004198 4264.899902
v 3115.722412 1649.995605 4264.900879
v 4765.722168 1649.995605 4264.900879
vt 0.333333 0.666667
vt 0.000000 1.000000
vt 0.000000 0.666667
vt 0.666667 0.000000
vt 0.333333 0.333333
vt 0.333333 0.000000
vt 0.666667 0.333333
vt 1.000000 0.000000
vt 1.000000 0.333333
vt 0.000000 0.333333
vt 0.333333 0.000000
vt 0.333333 0.333333
vt 0.666667 0.333333
vt 0.333333 0.666667
vt 0.333333 0.333333
vt 0.000000 0.666667
vt 0.333333 0.333333
vt 0.333333 0.666667
vt 0.333333 1.000000
vt 0.666667 0.333333
vt 0.666667 0.000000
vt 0.000000 0.000000
vt 0.666667 0.666667
vt 0.000000 0.333333
vn 0.0000 0.0000 -1.0000
vn -1.0000 0.0000 0.0000
vn 0.0000 -0.0000 1.0000
vn 1.0000 0.0000 0.0000
vn 0.0000 1.0000 0.0000
vn 0.0000 -1.0000 -0.0000
usemtl Material_#75
s 1
f 13/23/10 14/24/10 15/25/10
f 16/26/11 17/27/11 13/28/11
f 18/29/12 19/30/12 16/31/12
f 15/32/13 20/33/13 18/34/13
f 17/35/14 20/36/14 14/37/14
f 16/38/15 15/39/15 18/40/15
f 13/23/10 17/41/10 14/24/10
f 16/26/11 19/42/11 17/27/11
f 18/29/12 20/43/12 19/30/12
f 15/32/13 14/44/13 20/33/13
f 17/35/14 19/45/14 20/36/14
f 16/38/15 13/46/15 15/39/15
o object2_Untitled.004
v 5535.199707 -0.001772 5435.198242
v 39.199707 -0.000859 -156.800293
v 7.200195 -0.001772 5435.199219
v -24.800781 5487.998535 -156.799469
v 5535.199707 5487.997559 5435.199219
v -24.799805 5487.997559 5435.200195
v 5535.198730 5487.998535 -156.800446
v 5535.198730 -0.000859 -156.801270
vt 0.501443 0.501435
vt 0.997114 0.000000
vt 1.000000 0.501435
vt 0.000000 0.000000
vt 0.501443 0.501435
vt 0.000000 0.501435
vt 0.000000 1.000000
vt 0.494949 0.507174
vt 0.494949 1.000000
vt 0.501443 0.000000
vt 0.501443 0.000000
vt 0.000000 0.501435
vn -0.0000 1.0000 0.0000
vn -0.0000 -1.0000 -0.0000
vn 0.0000 -0.0000 1.0000
usemtl Material_#72
s 1
f 21/47/16 22/48/16 23/49/16
f 24/50/17 25/51/17 26/52/17
f 27/53/18 22/54/18 28/55/18
f 21/47/16 28/56/16 22/48/16
f 24/50/17 27/57/17 25/51/17
f 27/53/18 24/58/18 22/54/18
o object3_Untitled.002
v 5535.198730 5487.998535 -156.800446
v 5535.199707 -0.001772 5435.198242
v 5535.199707 5487.997559 5435.199219
v 5535.198730 -0.000859 -156.801270
vt 0.000000 0.000000
vt 1.000000 1.000000
vt 0.000000 1.000000
vt 1.000000 0.000000
vn -1.0000 -0.0000 0.0000
usemtl Material_#73
s 1
f 29/59/19 30/60/19 31/61/19
f 29/59/19 32/62/19 30/60/19
o object6_Untitled.001
v 683.045288 -0.006528 924.356079
v 2233.537598 3299.993652 360.022949
v 2233.537598 -0.006344 360.022339
v 1247.378906 -0.006787 2474.848633
v 683.045166 3299.993164 924.356628
v 2797.871338 -0.006603 1910.514893
v 1247.378784 3299.992676 2474.849121
v 2797.871094 3299.993164 1910.515259
vt 0.333333 0.500000
vt 0.000000 1.000000
vt 0.000000 0.500000
vt 0.666667 0.000000
vt 0.333334 0.500000
vt 0.333333 0.000000
vt 0.666667 0.500000
vt 1.000000 0.000000
vt 1.000000 0.500000
vt 0.333333 0.000000
vt 0.333333 0.500000
vt 1.000000 0.500000
vt 0.666667 0.750000
vt 0.666667 0.500000
vt 0.333333 0.500000
vt 0.666667 0.750000
vt 0.333334 0.750000
vt 0.333333 1.000000
vt 0.666667 0.500000
vt 0.666667 0.000000
vt 0.000000 0.000000
vt 1.000000 0.750000
vt 0.666667 0.500000
vn -0.3420 0.0000 -0.9397
vn -0.9397 -0.0000 0.3420
vn 0.3420 -0.0000 0.9397
vn 0.9397 0.0000 -0.3420
vn -0.0000 1.0000 0.0000
vn 0.0000 -1.0000 -0.0000
usemtl Material_#75
s 1
f 33/63/20 34/64/20 35/65/20
f 36/66/21 37/67/21 33/68/21
f 38/69/22 39/70/22 36/71/22
f 35/65/23 40/72/23 38/73/23
f 37/74/24 40/75/24 34/76/24
f 36/77/25 35/78/25 38/79/25
f 33/63/20 37/80/20 34/64/20
f 36/66/21 39/81/21 37/67/21
f 38/69/22 40/82/22 39/70/22
f 35/65/23 34/83/23 40/72/23
f 37/74/24 39/84/24 40/75/24
f 36/77/25 33/85/25 35/78/25
