# Blender v2.79 (sub 0) OBJ File: 'cornell_box_lux.blend'
# www.blender.org
mtllib cornell_box_lux.mtl
o object4_Untitled.003
v 7.200195 0.000000 5435.199219
v 39.199707 -0.000911 -156.800293
v -24.799805 5487.999512 5435.198242
v -24.800781 5487.998535 -156.801270
vt 0.000051 1.000000
vt 1.000000 0.000008
vt 1.000000 0.999992
vt 0.000000 0.000000
vn 1.0000 0.0087 0.0028
vn 1.0000 0.0088 0.0029
vn 1.0000 0.0058 -0.0000
vn 0.9999 0.0117 0.0057
usemtl Material_#74
s 1
f 1/1/1 4/2/2 3/3/3
f 1/1/1 2/4/4 4/2/2
o object3_Untitled.002
v 5535.199707 0.000000 5435.198242
v 5535.198730 -0.000911 -156.801270
v 5535.198730 5487.998535 -156.802246
v 5535.199707 5487.999512 5435.197266
vt 0.000000 0.000000
vt 1.000000 1.000000
vt 0.000000 1.000000
vt 1.000000 0.000000
vn -1.0000 -0.0000 0.0000
usemtl Material_#73
s 1
f 7/5/5 5/6/5 8/7/5
f 7/5/5 6/8/5 5/6/5
o object2_Untitled.004
v 7.200195 0.000000 5435.199219
v 5535.199707 0.000000 5435.198242
v 5535.198730 -0.000911 -156.801270
v 39.199707 -0.000911 -156.800293
v -24.799805 5487.999512 5435.198242
v -24.800781 5487.998535 -156.801270
v 5535.198730 5487.998535 -156.802246
v 5535.199707 5487.999512 5435.197266
vt 0.501443 0.501435
vt 0.997114 0.000000
vt 1.000000 0.501435
vt 0.000000 0.000000
vt 0.501443 0.501435
vt 0.000000 0.501435
vt 0.000000 1.000000
vt 0.494949 0.507174
vt 0.494949 1.000000
vt 0.501443 0.000000
vt 0.501443 0.000000
vt 0.000000 0.501435
vn -0.0000 1.0000 -0.0000
vn 0.0000 -1.0000 0.0000
vn 0.0000 0.0000 1.0000
usemtl Material_#72
s 1
f 10/9/6 12/10/6 9/11/6
f 14/12/7 16/13/7 13/14/7
f 15/15/8 12/16/8 11/17/8
f 10/9/6 11/18/6 12/10/6
f 14/12/7 15/19/7 16/13/7
f 15/15/8 14/20/8 12/16/8
o object6_Untitled.001
v 2233.537598 3299.993652 360.021851
v 2797.871094 3299.993652 1910.514282
v 1247.378784 3299.993652 2474.848145
v 683.045166 3299.993652 924.355530
v 2233.537598 -0.006226 360.022339
v 2797.871338 -0.005981 1910.514893
v 1247.378906 -0.005981 2474.848633
v 683.045288 -0.006226 924.356079
vt 0.333333 0.500000
vt 0.000000 1.000000
vt 0.000000 0.500000
vt 0.666667 0.000000
vt 0.333334 0.500000
vt 0.333333 0.000000
vt 0.666667 0.500000
vt 1.000000 0.000000
vt 1.000000 0.500000
vt 0.333333 0.000000
vt 0.333333 0.500000
vt 1.000000 0.500000
vt 0.666667 0.750000
vt 0.666667 0.500000
vt 0.333333 0.500000
vt 0.666667 0.750000
vt 0.333334 0.750000
vt 0.333333 1.000000
vt 0.666667 0.500000
vt 0.666667 0.000000
vt 0.000000 0.000000
vt 1.000000 0.750000
vt 0.666667 0.500000
vn -0.3420 -0.0000 -0.9397
vn -0.9397 0.0000 0.3420
vn 0.3420 0.0000 0.9397
vn 0.9397 0.0000 -0.3420
vn 0.0000 1.0000 -0.0000
vn 0.0000 -1.0000 0.0000
usemtl Material_#75
s 1
f 24/21/9 17/22/9 21/23/9
f 23/24/10 20/25/10 24/26/10
f 22/27/11 19/28/11 23/29/11
f 21/23/12 18/30/12 22/31/12
f 20/32/13 18/33/13 17/34/13
f 23/35/14 21/36/14 22/37/14
f 24/21/9 20/38/9 17/22/9
f 23/24/10 19/39/10 20/25/10
f 22/27/11 18/40/11 19/28/11
f 21/23/12 17/41/12 18/30/12
f 20/32/13 19/42/13 18/33/13
f 23/35/14 24/43/14 21/36/14
o object5_Untitled
v 4765.722168 1649.996826 2614.899902
v 4765.722168 1649.997070 4264.899902
v 3115.722412 1649.997070 4264.899902
v 3115.722168 1649.996826 2614.900146
v 4765.722168 -0.003052 2614.900146
v 4765.722168 -0.002808 4264.899902
v 3115.722412 -0.002808 4264.900391
v 3115.722168 -0.003052 2614.900391
vt 0.333333 0.666667
vt 0.000000 1.000000
vt 0.000000 0.666667
vt 0.666667 0.000000
vt 0.333333 0.333333
vt 0.333333 0.000000
vt 0.666667 0.333333
vt 1.000000 0.000000
vt 1.000000 0.333333
vt 0.000000 0.333333
vt 0.333333 0.000000
vt 0.333333 0.333333
vt 0.666667 0.333333
vt 0.333333 0.666667
vt 0.333333 0.333333
vt 0.000000 0.666667
vt 0.333333 0.333333
vt 0.333333 0.666667
vt 0.333333 1.000000
vt 0.666667 0.333333
vt 0.666667 0.000000
vt 0.000000 0.000000
vt 0.666667 0.666667
vt 0.000000 0.333333
vn -0.0000 -0.0000 -1.0000
vn -1.0000 0.0000 0.0000
vn 0.0000 0.0000 1.0000
vn 1.0000 0.0000 0.0000
vn 0.0000 1.0000 -0.0000
vn 0.0000 -1.0000 0.0000
usemtl Material_#75
s 1
f 32/44/15 25/45/15 29/46/15
f 31/47/16 28/48/16 32/49/16
f 30/50/17 27/51/17 31/52/17
f 29/53/18 26/54/18 30/55/18
f 28/56/19 26/57/19 25/58/19
f 31/59/20 29/60/20 30/61/20
f 32/44/15 28/62/15 25/45/15
f 31/47/16 27/63/16 28/48/16
f 30/50/17 26/64/17 27/51/17
f 29/53/18 25/65/18 26/54/18
f 28/56/19 27/66/19 26/57/19
f 31/59/20 32/67/20 29/60/20
